<svg xmlns="http://www.w3.org/2000/svg" version="1.1" xmlns:xlink="http://www.w3.org/1999/xlink" xmlns:svgjs="http://svgjs.dev/svgjs" viewBox="0 0 800 800"><defs><linearGradient x1="50%" y1="0%" x2="50%" y2="100%" id="ffflurry-grad" gradientTransform="rotate(270)"><stop stop-color="hsl(0, 0%, 5%)" stop-opacity="1" offset="0%"></stop><stop stop-color="#9ab973" stop-opacity="1" offset="45%"></stop><stop stop-color="#89b84d" stop-opacity="1" offset="100%"></stop></linearGradient></defs><rect width="100%" height="100%" fill="hsl(0, 0%, 5%)"></rect><g fill="url(#ffflurry-grad)"><rect width="326" height="2" x="266" y="248" rx="1" transform="rotate(331, 429, 249)" opacity="0.36"></rect><rect width="294" height="2" x="-110" y="166" rx="1" transform="rotate(331, 37, 167)" opacity="0.82"></rect><rect width="81" height="2" x="735.5" y="751" rx="1" transform="rotate(331, 776, 752)" opacity="0.84"></rect><rect width="338" height="2" x="-103" y="28" rx="1" transform="rotate(331, 66, 29)" opacity="0.26"></rect><rect width="497" height="2" x="-99.5" y="107" rx="1" transform="rotate(331, 149, 108)" opacity="0.86"></rect><rect width="394" height="2" x="89" y="597" rx="1" transform="rotate(331, 286, 598)" opacity="0.69"></rect><rect width="415" height="2" x="87.5" y="661" rx="1" transform="rotate(331, 295, 662)" opacity="0.55"></rect><rect width="477" height="2" x="-56.5" y="228" rx="1" transform="rotate(331, 182, 229)" opacity="0.57"></rect><rect width="514" height="2" x="249" y="456" rx="1" transform="rotate(331, 506, 457)" opacity="0.87"></rect><rect width="212" height="2" x="105" y="357" rx="1" transform="rotate(331, 211, 358)" opacity="0.25"></rect><rect width="238" height="2" x="120" y="151" rx="1" transform="rotate(331, 239, 152)" opacity="0.34"></rect><rect width="110" height="2" x="141" y="707" rx="1" transform="rotate(331, 196, 708)" opacity="0.48"></rect><rect width="36" height="2" x="16" y="377" rx="1" transform="rotate(331, 34, 378)" opacity="0.62"></rect><rect width="513" height="2" x="389.5" y="220" rx="1" transform="rotate(331, 646, 221)" opacity="0.47"></rect><rect width="194" height="2" x="55" y="662" rx="1" transform="rotate(331, 152, 663)" opacity="0.37"></rect><rect width="417" height="2" x="541.5" y="138" rx="1" transform="rotate(331, 750, 139)" opacity="1.00"></rect><rect width="289" height="2" x="-112.5" y="520" rx="1" transform="rotate(331, 32, 521)" opacity="0.45"></rect><rect width="132" height="2" x="409" y="335" rx="1" transform="rotate(331, 475, 336)" opacity="0.15"></rect><rect width="392" height="2" x="191" y="475" rx="1" transform="rotate(331, 387, 476)" opacity="0.62"></rect><rect width="299" height="2" x="327.5" y="758" rx="1" transform="rotate(331, 477, 759)" opacity="0.85"></rect><rect width="111" height="2" x="189.5" y="52" rx="1" transform="rotate(331, 245, 53)" opacity="0.24"></rect><rect width="219" height="2" x="287.5" y="29" rx="1" transform="rotate(331, 397, 30)" opacity="0.40"></rect><rect width="74" height="2" x="197" y="706" rx="1" transform="rotate(331, 234, 707)" opacity="0.98"></rect><rect width="100" height="2" x="135" y="308" rx="1" transform="rotate(331, 185, 309)" opacity="0.90"></rect><rect width="272" height="2" x="-3" y="296" rx="1" transform="rotate(331, 133, 297)" opacity="0.54"></rect><rect width="449" height="2" x="223.5" y="493" rx="1" transform="rotate(331, 448, 494)" opacity="0.89"></rect><rect width="442" height="2" x="34" y="248" rx="1" transform="rotate(331, 255, 249)" opacity="0.95"></rect><rect width="320" height="2" x="545" y="363" rx="1" transform="rotate(331, 705, 364)" opacity="0.23"></rect><rect width="50" height="2" x="620" y="683" rx="1" transform="rotate(331, 645, 684)" opacity="0.76"></rect><rect width="154" height="2" x="35" y="511" rx="1" transform="rotate(331, 112, 512)" opacity="0.49"></rect><rect width="273" height="2" x="634.5" y="682" rx="1" transform="rotate(331, 771, 683)" opacity="0.66"></rect><rect width="266" height="2" x="599" y="430" rx="1" transform="rotate(331, 732, 431)" opacity="0.39"></rect><rect width="133" height="2" x="-6.5" y="212" rx="1" transform="rotate(331, 60, 213)" opacity="0.45"></rect><rect width="373" height="2" x="247.5" y="556" rx="1" transform="rotate(331, 434, 557)" opacity="0.99"></rect><rect width="348" height="2" x="600" y="610" rx="1" transform="rotate(331, 774, 611)" opacity="0.77"></rect><rect width="369" height="2" x="58.5" y="772" rx="1" transform="rotate(331, 243, 773)" opacity="0.11"></rect><rect width="469" height="2" x="333.5" y="49" rx="1" transform="rotate(331, 568, 50)" opacity="0.20"></rect><rect width="420" height="2" x="-98" y="360" rx="1" transform="rotate(331, 112, 361)" opacity="0.80"></rect><rect width="61" height="2" x="608.5" y="764" rx="1" transform="rotate(331, 639, 765)" opacity="1.00"></rect><rect width="476" height="2" x="103" y="721" rx="1" transform="rotate(331, 341, 722)" opacity="0.73"></rect><rect width="358" height="2" x="541" y="645" rx="1" transform="rotate(331, 720, 646)" opacity="0.70"></rect><rect width="430" height="2" x="349" y="298" rx="1" transform="rotate(331, 564, 299)" opacity="0.65"></rect><rect width="203" height="2" x="332.5" y="662" rx="1" transform="rotate(331, 434, 663)" opacity="0.80"></rect><rect width="143" height="2" x="655.5" y="778" rx="1" transform="rotate(331, 727, 779)" opacity="0.08"></rect><rect width="228" height="2" x="223" y="412" rx="1" transform="rotate(331, 337, 413)" opacity="0.73"></rect><rect width="375" height="2" x="121.5" y="84" rx="1" transform="rotate(331, 309, 85)" opacity="0.22"></rect><rect width="150" height="2" x="407" y="219" rx="1" transform="rotate(331, 482, 220)" opacity="0.78"></rect><rect width="299" height="2" x="356.5" y="46" rx="1" transform="rotate(331, 506, 47)" opacity="0.81"></rect><rect width="212" height="2" x="589" y="294" rx="1" transform="rotate(331, 695, 295)" opacity="0.62"></rect><rect width="278" height="2" x="523" y="551" rx="1" transform="rotate(331, 662, 552)" opacity="0.50"></rect><rect width="86" height="2" x="31" y="272" rx="1" transform="rotate(331, 74, 273)" opacity="0.61"></rect><rect width="319" height="2" x="220.5" y="286" rx="1" transform="rotate(331, 380, 287)" opacity="0.41"></rect><rect width="362" height="2" x="100" y="720" rx="1" transform="rotate(331, 281, 721)" opacity="0.53"></rect><rect width="438" height="2" x="529" y="494" rx="1" transform="rotate(331, 748, 495)" opacity="0.39"></rect><rect width="469" height="2" x="274.5" y="541" rx="1" transform="rotate(331, 509, 542)" opacity="0.85"></rect><rect width="114" height="2" x="651" y="204" rx="1" transform="rotate(331, 708, 205)" opacity="0.58"></rect><rect width="405" height="2" x="-152.5" y="448" rx="1" transform="rotate(331, 50, 449)" opacity="0.67"></rect><rect width="99" height="2" x="353.5" y="125" rx="1" transform="rotate(331, 403, 126)" opacity="0.31"></rect><rect width="198" height="2" x="80" y="43" rx="1" transform="rotate(331, 179, 44)" opacity="0.18"></rect><rect width="546" height="2" x="-135" y="424" rx="1" transform="rotate(331, 138, 425)" opacity="0.59"></rect><rect width="429" height="2" x="48.5" y="397" rx="1" transform="rotate(331, 263, 398)" opacity="0.75"></rect><rect width="404" height="2" x="-182" y="262" rx="1" transform="rotate(331, 20, 263)" opacity="0.77"></rect><rect width="455" height="2" x="137.5" y="654" rx="1" transform="rotate(331, 365, 655)" opacity="0.44"></rect><rect width="371" height="2" x="21.5" y="468" rx="1" transform="rotate(331, 207, 469)" opacity="0.79"></rect><rect width="221" height="2" x="233.5" y="777" rx="1" transform="rotate(331, 344, 778)" opacity="0.32"></rect><rect width="200" height="2" x="606" y="21" rx="1" transform="rotate(331, 706, 22)" opacity="0.90"></rect><rect width="317" height="2" x="-28.5" y="175" rx="1" transform="rotate(331, 130, 176)" opacity="0.55"></rect><rect width="342" height="2" x="578" y="556" rx="1" transform="rotate(331, 749, 557)" opacity="0.16"></rect><rect width="83" height="2" x="616.5" y="123" rx="1" transform="rotate(331, 658, 124)" opacity="0.98"></rect><rect width="490" height="2" x="245" y="612" rx="1" transform="rotate(331, 490, 613)" opacity="0.30"></rect><rect width="40" height="2" x="375" y="579" rx="1" transform="rotate(331, 395, 580)" opacity="0.17"></rect><rect width="611" height="2" x="276.5" y="596" rx="1" transform="rotate(331, 582, 597)" opacity="0.63"></rect><rect width="114" height="2" x="-8" y="588" rx="1" transform="rotate(331, 49, 589)" opacity="0.56"></rect><rect width="196" height="2" x="456" y="767" rx="1" transform="rotate(331, 554, 768)" opacity="0.85"></rect><rect width="229" height="2" x="113.5" y="638" rx="1" transform="rotate(331, 228, 639)" opacity="0.53"></rect><rect width="417" height="2" x="465.5" y="407" rx="1" transform="rotate(331, 674, 408)" opacity="0.49"></rect><rect width="206" height="2" x="560" y="620" rx="1" transform="rotate(331, 663, 621)" opacity="0.11"></rect><rect width="511" height="2" x="86.5" y="153" rx="1" transform="rotate(331, 342, 154)" opacity="0.68"></rect><rect width="30" height="2" x="749" y="363" rx="1" transform="rotate(331, 764, 364)" opacity="0.85"></rect><rect width="164" height="2" x="-60" y="95" rx="1" transform="rotate(331, 22, 96)" opacity="0.77"></rect><rect width="387" height="2" x="-112.5" y="99" rx="1" transform="rotate(331, 81, 100)" opacity="0.14"></rect><rect width="37" height="2" x="2.5" y="642" rx="1" transform="rotate(331, 21, 643)" opacity="0.52"></rect><rect width="533" height="2" x="-81.5" y="549" rx="1" transform="rotate(331, 185, 550)" opacity="0.81"></rect><rect width="109" height="2" x="607.5" y="476" rx="1" transform="rotate(331, 662, 477)" opacity="0.53"></rect><rect width="104" height="2" x="697" y="250" rx="1" transform="rotate(331, 749, 251)" opacity="0.52"></rect><rect width="430" height="2" x="-77" y="771" rx="1" transform="rotate(331, 138, 772)" opacity="0.14"></rect><rect width="53" height="2" x="135.5" y="726" rx="1" transform="rotate(331, 162, 727)" opacity="0.40"></rect><rect width="286" height="2" x="295" y="73" rx="1" transform="rotate(331, 438, 74)" opacity="0.80"></rect><rect width="362" height="2" x="1" y="613" rx="1" transform="rotate(331, 182, 614)" opacity="0.24"></rect><rect width="119" height="2" x="430.5" y="137" rx="1" transform="rotate(331, 490, 138)" opacity="0.76"></rect><rect width="342" height="2" x="607" y="202" rx="1" transform="rotate(331, 778, 203)" opacity="0.35"></rect><rect width="64" height="2" x="749" y="430" rx="1" transform="rotate(331, 781, 431)" opacity="0.59"></rect><rect width="292" height="2" x="164" y="322" rx="1" transform="rotate(331, 310, 323)" opacity="0.73"></rect><rect width="129" height="2" x="281.5" y="539" rx="1" transform="rotate(331, 346, 540)" opacity="0.41"></rect><rect width="603" height="2" x="265.5" y="215" rx="1" transform="rotate(331, 567, 216)" opacity="0.25"></rect><rect width="262" height="2" x="-78" y="319" rx="1" transform="rotate(331, 53, 320)" opacity="0.09"></rect><rect width="235" height="2" x="193.5" y="481" rx="1" transform="rotate(331, 311, 482)" opacity="0.88"></rect><rect width="372" height="2" x="449" y="331" rx="1" transform="rotate(331, 635, 332)" opacity="0.94"></rect><rect width="309" height="2" x="621.5" y="46" rx="1" transform="rotate(331, 776, 47)" opacity="1.00"></rect><rect width="545" height="2" x="308.5" y="500" rx="1" transform="rotate(331, 581, 501)" opacity="0.25"></rect><rect width="113" height="2" x="235.5" y="19" rx="1" transform="rotate(331, 292, 20)" opacity="0.21"></rect><rect width="450" height="2" x="315" y="390" rx="1" transform="rotate(331, 540, 391)" opacity="0.79"></rect><rect width="532" height="2" x="373" y="41" rx="1" transform="rotate(331, 639, 42)" opacity="0.16"></rect><rect width="54" height="2" x="82" y="637" rx="1" transform="rotate(331, 109, 638)" opacity="0.88"></rect><rect width="490" height="2" x="167" y="740" rx="1" transform="rotate(331, 412, 741)" opacity="0.66"></rect><rect width="80" height="2" x="2" y="750" rx="1" transform="rotate(331, 42, 751)" opacity="0.97"></rect><rect width="420" height="2" x="51" y="533" rx="1" transform="rotate(331, 261, 534)" opacity="0.30"></rect><rect width="348" height="2" x="405" y="136" rx="1" transform="rotate(331, 579, 137)" opacity="0.84"></rect><rect width="295" height="2" x="-21.5" y="705" rx="1" transform="rotate(331, 126, 706)" opacity="0.10"></rect><rect width="589" height="2" x="98.5" y="360" rx="1" transform="rotate(331, 393, 361)" opacity="0.30"></rect><rect width="112" height="2" x="295" y="35" rx="1" transform="rotate(331, 351, 36)" opacity="0.42"></rect><rect width="79" height="2" x="308.5" y="597" rx="1" transform="rotate(331, 348, 598)" opacity="0.51"></rect><rect width="189" height="2" x="22.5" y="246" rx="1" transform="rotate(331, 117, 247)" opacity="0.10"></rect><rect width="262" height="2" x="476" y="414" rx="1" transform="rotate(331, 607, 415)" opacity="0.55"></rect><rect width="424" height="2" x="-140" y="681" rx="1" transform="rotate(331, 72, 682)" opacity="0.81"></rect><rect width="272" height="2" x="381" y="680" rx="1" transform="rotate(331, 517, 681)" opacity="0.48"></rect><rect width="88" height="2" x="726" y="302" rx="1" transform="rotate(331, 770, 303)" opacity="0.45"></rect><rect width="424" height="2" x="369" y="696" rx="1" transform="rotate(331, 581, 697)" opacity="0.22"></rect><rect width="320" height="2" x="295" y="20" rx="1" transform="rotate(331, 455, 21)" opacity="0.30"></rect><rect width="426" height="2" x="509" y="76" rx="1" transform="rotate(331, 722, 77)" opacity="0.17"></rect><rect width="518" height="2" x="179" y="417" rx="1" transform="rotate(331, 438, 418)" opacity="0.90"></rect><rect width="211" height="2" x="9.5" y="585" rx="1" transform="rotate(331, 115, 586)" opacity="0.52"></rect><rect width="121" height="2" x="647.5" y="722" rx="1" transform="rotate(331, 708, 723)" opacity="0.26"></rect><rect width="265" height="2" x="201.5" y="225" rx="1" transform="rotate(331, 334, 226)" opacity="0.31"></rect></g></svg>