<svg xmlns="http://www.w3.org/2000/svg" version="1.1" xmlns:xlink="http://www.w3.org/1999/xlink" xmlns:svgjs="http://svgjs.dev/svgjs" viewBox="0 0 800 800"><defs><linearGradient x1="50%" y1="0%" x2="50%" y2="100%" id="ffflurry-grad" gradientTransform="rotate(270)"><stop stop-color="hsl(0, 0%, 100%)" stop-opacity="1" offset="0%"></stop><stop stop-color="#9ab973" stop-opacity="1" offset="45%"></stop><stop stop-color="#89b84d" stop-opacity="1" offset="100%"></stop></linearGradient></defs><rect width="100%" height="100%" fill="hsl(0, 0%, 100%)"></rect><g fill="url(#ffflurry-grad)"><rect width="508" height="2" x="170" y="516" rx="1" transform="rotate(331, 424, 517)" opacity="0.66"></rect><rect width="462" height="2" x="114" y="229" rx="1" transform="rotate(331, 345, 230)" opacity="0.74"></rect><rect width="314" height="2" x="120" y="530" rx="1" transform="rotate(331, 277, 531)" opacity="0.78"></rect><rect width="183" height="2" x="269.5" y="153" rx="1" transform="rotate(331, 361, 154)" opacity="0.22"></rect><rect width="243" height="2" x="-97.5" y="635" rx="1" transform="rotate(331, 24, 636)" opacity="0.87"></rect><rect width="36" height="2" x="543" y="235" rx="1" transform="rotate(331, 561, 236)" opacity="0.14"></rect><rect width="332" height="2" x="282" y="20" rx="1" transform="rotate(331, 448, 21)" opacity="0.81"></rect><rect width="243" height="2" x="236.5" y="581" rx="1" transform="rotate(331, 358, 582)" opacity="0.66"></rect><rect width="73" height="2" x="37.5" y="775" rx="1" transform="rotate(331, 74, 776)" opacity="0.83"></rect><rect width="531" height="2" x="497.5" y="496" rx="1" transform="rotate(331, 763, 497)" opacity="0.95"></rect><rect width="127" height="2" x="642.5" y="769" rx="1" transform="rotate(331, 706, 770)" opacity="1.00"></rect><rect width="47" height="2" x="674.5" y="546" rx="1" transform="rotate(331, 698, 547)" opacity="0.50"></rect><rect width="136" height="2" x="-23" y="173" rx="1" transform="rotate(331, 45, 174)" opacity="0.21"></rect><rect width="179" height="2" x="342.5" y="188" rx="1" transform="rotate(331, 432, 189)" opacity="0.63"></rect><rect width="256" height="2" x="599" y="312" rx="1" transform="rotate(331, 727, 313)" opacity="0.61"></rect><rect width="408" height="2" x="392" y="373" rx="1" transform="rotate(331, 596, 374)" opacity="0.40"></rect><rect width="260" height="2" x="371" y="721" rx="1" transform="rotate(331, 501, 722)" opacity="0.53"></rect><rect width="98" height="2" x="206" y="449" rx="1" transform="rotate(331, 255, 450)" opacity="0.67"></rect><rect width="152" height="2" x="200" y="370" rx="1" transform="rotate(331, 276, 371)" opacity="0.31"></rect><rect width="288" height="2" x="300" y="223" rx="1" transform="rotate(331, 444, 224)" opacity="0.45"></rect><rect width="457" height="2" x="449.5" y="457" rx="1" transform="rotate(331, 678, 458)" opacity="0.76"></rect><rect width="375" height="2" x="-156.5" y="117" rx="1" transform="rotate(331, 31, 118)" opacity="0.79"></rect><rect width="43" height="2" x="332.5" y="460" rx="1" transform="rotate(331, 354, 461)" opacity="0.83"></rect><rect width="74" height="2" x="541" y="659" rx="1" transform="rotate(331, 578, 660)" opacity="0.91"></rect><rect width="37" height="2" x="512.5" y="33" rx="1" transform="rotate(331, 531, 34)" opacity="0.88"></rect><rect width="282" height="2" x="68" y="57" rx="1" transform="rotate(331, 209, 58)" opacity="0.52"></rect><rect width="271" height="2" x="350.5" y="252" rx="1" transform="rotate(331, 486, 253)" opacity="0.22"></rect><rect width="267" height="2" x="362.5" y="567" rx="1" transform="rotate(331, 496, 568)" opacity="0.42"></rect><rect width="462" height="2" x="-93" y="756" rx="1" transform="rotate(331, 138, 757)" opacity="0.54"></rect><rect width="402" height="2" x="163" y="25" rx="1" transform="rotate(331, 364, 26)" opacity="0.64"></rect><rect width="436" height="2" x="381" y="134" rx="1" transform="rotate(331, 599, 135)" opacity="0.96"></rect><rect width="71" height="2" x="719.5" y="389" rx="1" transform="rotate(331, 755, 390)" opacity="0.59"></rect><rect width="244" height="2" x="-83" y="569" rx="1" transform="rotate(331, 39, 570)" opacity="0.99"></rect><rect width="300" height="2" x="21" y="136" rx="1" transform="rotate(331, 171, 137)" opacity="0.72"></rect><rect width="194" height="2" x="311" y="725" rx="1" transform="rotate(331, 408, 726)" opacity="0.80"></rect><rect width="475" height="2" x="527.5" y="609" rx="1" transform="rotate(331, 765, 610)" opacity="0.75"></rect><rect width="417" height="2" x="-109.5" y="101" rx="1" transform="rotate(331, 99, 102)" opacity="0.21"></rect><rect width="99" height="2" x="689.5" y="60" rx="1" transform="rotate(331, 739, 61)" opacity="0.13"></rect><rect width="394" height="2" x="437" y="310" rx="1" transform="rotate(331, 634, 311)" opacity="0.31"></rect><rect width="201" height="2" x="-80.5" y="766" rx="1" transform="rotate(331, 20, 767)" opacity="0.14"></rect><rect width="305" height="2" x="314.5" y="771" rx="1" transform="rotate(331, 467, 772)" opacity="0.15"></rect><rect width="224" height="2" x="203" y="422" rx="1" transform="rotate(331, 315, 423)" opacity="0.57"></rect><rect width="93" height="2" x="632.5" y="718" rx="1" transform="rotate(331, 679, 719)" opacity="0.10"></rect><rect width="115" height="2" x="568.5" y="688" rx="1" transform="rotate(331, 626, 689)" opacity="0.36"></rect><rect width="622" height="2" x="-103" y="341" rx="1" transform="rotate(331, 208, 342)" opacity="0.46"></rect><rect width="198" height="2" x="538" y="773" rx="1" transform="rotate(331, 637, 774)" opacity="0.96"></rect><rect width="50" height="2" x="282" y="83" rx="1" transform="rotate(331, 307, 84)" opacity="0.83"></rect><rect width="213" height="2" x="561.5" y="370" rx="1" transform="rotate(331, 668, 371)" opacity="0.99"></rect><rect width="206" height="2" x="230" y="125" rx="1" transform="rotate(331, 333, 126)" opacity="0.66"></rect><rect width="226" height="2" x="24" y="674" rx="1" transform="rotate(331, 137, 675)" opacity="0.42"></rect><rect width="315" height="2" x="73.5" y="244" rx="1" transform="rotate(331, 231, 245)" opacity="0.43"></rect><rect width="581" height="2" x="385.5" y="161" rx="1" transform="rotate(331, 676, 162)" opacity="0.12"></rect><rect width="42" height="2" x="3" y="696" rx="1" transform="rotate(331, 24, 697)" opacity="0.33"></rect><rect width="247" height="2" x="-80.5" y="343" rx="1" transform="rotate(331, 43, 344)" opacity="0.27"></rect><rect width="54" height="2" x="390" y="60" rx="1" transform="rotate(331, 417, 61)" opacity="0.53"></rect><rect width="185" height="2" x="630.5" y="254" rx="1" transform="rotate(331, 723, 255)" opacity="0.17"></rect><rect width="106" height="2" x="458" y="484" rx="1" transform="rotate(331, 511, 485)" opacity="0.72"></rect><rect width="474" height="2" x="72" y="295" rx="1" transform="rotate(331, 309, 296)" opacity="0.35"></rect><rect width="109" height="2" x="64.5" y="332" rx="1" transform="rotate(331, 119, 333)" opacity="0.81"></rect><rect width="149" height="2" x="388.5" y="685" rx="1" transform="rotate(331, 463, 686)" opacity="0.61"></rect><rect width="329" height="2" x="116.5" y="31" rx="1" transform="rotate(331, 281, 32)" opacity="0.96"></rect><rect width="49" height="2" x="379.5" y="674" rx="1" transform="rotate(331, 404, 675)" opacity="0.15"></rect><rect width="410" height="2" x="62" y="160" rx="1" transform="rotate(331, 267, 161)" opacity="0.94"></rect><rect width="105" height="2" x="259.5" y="636" rx="1" transform="rotate(331, 312, 637)" opacity="0.11"></rect><rect width="386" height="2" x="231" y="443" rx="1" transform="rotate(331, 424, 444)" opacity="0.36"></rect><rect width="63" height="2" x="140.5" y="611" rx="1" transform="rotate(331, 172, 612)" opacity="0.18"></rect><rect width="64" height="2" x="541" y="432" rx="1" transform="rotate(331, 573, 433)" opacity="0.46"></rect><rect width="361" height="2" x="-92.5" y="513" rx="1" transform="rotate(331, 88, 514)" opacity="0.31"></rect><rect width="417" height="2" x="97.5" y="698" rx="1" transform="rotate(331, 306, 699)" opacity="0.76"></rect><rect width="152" height="2" x="492" y="559" rx="1" transform="rotate(331, 568, 560)" opacity="0.96"></rect><rect width="78" height="2" x="656" y="220" rx="1" transform="rotate(331, 695, 221)" opacity="0.28"></rect><rect width="459" height="2" x="193.5" y="590" rx="1" transform="rotate(331, 423, 591)" opacity="0.51"></rect><rect width="59" height="2" x="96.5" y="407" rx="1" transform="rotate(331, 126, 408)" opacity="0.21"></rect><rect width="246" height="2" x="642" y="170" rx="1" transform="rotate(331, 765, 171)" opacity="0.59"></rect><rect width="33" height="2" x="276.5" y="586" rx="1" transform="rotate(331, 293, 587)" opacity="0.27"></rect><rect width="286" height="2" x="492" y="577" rx="1" transform="rotate(331, 635, 578)" opacity="0.20"></rect><rect width="176" height="2" x="598" y="664" rx="1" transform="rotate(331, 686, 665)" opacity="0.17"></rect><rect width="205" height="2" x="37.5" y="483" rx="1" transform="rotate(331, 140, 484)" opacity="0.34"></rect><rect width="426" height="2" x="558" y="761" rx="1" transform="rotate(331, 771, 762)" opacity="0.74"></rect><rect width="219" height="2" x="373.5" y="311" rx="1" transform="rotate(331, 483, 312)" opacity="0.08"></rect><rect width="240" height="2" x="15" y="268" rx="1" transform="rotate(331, 135, 269)" opacity="0.90"></rect><rect width="84" height="2" x="713" y="694" rx="1" transform="rotate(331, 755, 695)" opacity="0.47"></rect><rect width="149" height="2" x="295.5" y="645" rx="1" transform="rotate(331, 370, 646)" opacity="0.57"></rect><rect width="774" height="2" x="-172" y="736" rx="1" transform="rotate(331, 215, 737)" opacity="0.19"></rect><rect width="268" height="2" x="536" y="278" rx="1" transform="rotate(331, 670, 279)" opacity="0.85"></rect><rect width="159" height="2" x="402.5" y="637" rx="1" transform="rotate(331, 482, 638)" opacity="0.27"></rect><rect width="322" height="2" x="-96" y="227" rx="1" transform="rotate(331, 65, 228)" opacity="0.87"></rect><rect width="369" height="2" x="-153.5" y="61" rx="1" transform="rotate(331, 31, 62)" opacity="0.12"></rect><rect width="130" height="2" x="329" y="172" rx="1" transform="rotate(331, 394, 173)" opacity="0.73"></rect><rect width="452" height="2" x="-145" y="635" rx="1" transform="rotate(331, 81, 636)" opacity="0.48"></rect><rect width="256" height="2" x="180" y="766" rx="1" transform="rotate(331, 308, 767)" opacity="0.11"></rect><rect width="207" height="2" x="410.5" y="102" rx="1" transform="rotate(331, 514, 103)" opacity="0.45"></rect><rect width="377" height="2" x="363.5" y="697" rx="1" transform="rotate(331, 552, 698)" opacity="0.97"></rect><rect width="315" height="2" x="303.5" y="75" rx="1" transform="rotate(331, 461, 76)" opacity="0.08"></rect><rect width="172" height="2" x="310" y="772" rx="1" transform="rotate(331, 396, 773)" opacity="0.62"></rect><rect width="175" height="2" x="277.5" y="366" rx="1" transform="rotate(331, 365, 367)" opacity="0.70"></rect><rect width="361" height="2" x="438.5" y="242" rx="1" transform="rotate(331, 619, 243)" opacity="0.86"></rect><rect width="568" height="2" x="123" y="299" rx="1" transform="rotate(331, 407, 300)" opacity="0.23"></rect><rect width="121" height="2" x="320.5" y="86" rx="1" transform="rotate(331, 381, 87)" opacity="0.12"></rect><rect width="304" height="2" x="84" y="636" rx="1" transform="rotate(331, 236, 637)" opacity="0.41"></rect><rect width="379" height="2" x="-40.5" y="200" rx="1" transform="rotate(331, 149, 201)" opacity="0.11"></rect><rect width="459" height="2" x="222.5" y="387" rx="1" transform="rotate(331, 452, 388)" opacity="0.91"></rect><rect width="109" height="2" x="286.5" y="518" rx="1" transform="rotate(331, 341, 519)" opacity="0.39"></rect><rect width="273" height="2" x="385.5" y="175" rx="1" transform="rotate(331, 522, 176)" opacity="0.55"></rect><rect width="512" height="2" x="355" y="505" rx="1" transform="rotate(331, 611, 506)" opacity="0.96"></rect><rect width="255" height="2" x="483.5" y="624" rx="1" transform="rotate(331, 611, 625)" opacity="0.15"></rect><rect width="424" height="2" x="326" y="771" rx="1" transform="rotate(331, 538, 772)" opacity="0.64"></rect><rect width="237" height="2" x="79.5" y="457" rx="1" transform="rotate(331, 198, 458)" opacity="0.23"></rect><rect width="103" height="2" x="725.5" y="279" rx="1" transform="rotate(331, 777, 280)" opacity="0.72"></rect><rect width="240" height="2" x="421" y="623" rx="1" transform="rotate(331, 541, 624)" opacity="0.72"></rect><rect width="403" height="2" x="-170.5" y="276" rx="1" transform="rotate(331, 31, 277)" opacity="0.50"></rect><rect width="133" height="2" x="1.5" y="718" rx="1" transform="rotate(331, 68, 719)" opacity="0.35"></rect><rect width="248" height="2" x="2" y="33" rx="1" transform="rotate(331, 126, 34)" opacity="0.30"></rect><rect width="247" height="2" x="-88.5" y="486" rx="1" transform="rotate(331, 35, 487)" opacity="0.16"></rect><rect width="357" height="2" x="-50.5" y="565" rx="1" transform="rotate(331, 128, 566)" opacity="0.57"></rect><rect width="286" height="2" x="548" y="615" rx="1" transform="rotate(331, 691, 616)" opacity="0.40"></rect><rect width="136" height="2" x="503" y="310" rx="1" transform="rotate(331, 571, 311)" opacity="0.11"></rect><rect width="577" height="2" x="-249.5" y="412" rx="1" transform="rotate(331, 39, 413)" opacity="0.49"></rect><rect width="37" height="2" x="501.5" y="364" rx="1" transform="rotate(331, 520, 365)" opacity="0.22"></rect><rect width="189" height="2" x="-52.5" y="18" rx="1" transform="rotate(331, 42, 19)" opacity="0.55"></rect><rect width="208" height="2" x="340" y="132" rx="1" transform="rotate(331, 444, 133)" opacity="0.61"></rect><rect width="157" height="2" x="133.5" y="541" rx="1" transform="rotate(331, 212, 542)" opacity="0.64"></rect><rect width="238" height="2" x="475" y="747" rx="1" transform="rotate(331, 594, 748)" opacity="0.08"></rect><rect width="450" height="2" x="403" y="45" rx="1" transform="rotate(331, 628, 46)" opacity="0.36"></rect></g></svg>