<svg xmlns="http://www.w3.org/2000/svg" version="1.1" xmlns:xlink="http://www.w3.org/1999/xlink" xmlns:svgjs="http://svgjs.dev/svgjs" viewBox="0 0 800 800" opacity="0.53"><defs><linearGradient x1="50%" y1="0%" x2="50%" y2="100%" id="ssscribble-grad"><stop stop-color="#9ab973" stop-opacity="1" offset="0%"></stop><stop stop-color="#9ab973" stop-opacity="1" offset="100%"></stop></linearGradient></defs><g fill="none" stroke-width="1.5" stroke="url(#ssscribble-grad)" stroke-linecap="round"><path d="M950.43 187.68C784.94 220.54 666.22 244.82 647.88 269.01 733.46 304 870.61 359 990.85 449.22 1049.53 562.58 1018.47 703.7 916.95 839.73 776.04 917.07 640.83 907.16 541.69 796.37 488.31 654.08 481.82 559.51 505.16 606.3 552.52 787.85 599.11 993.63 632.41 1059.16 667.28 822.9 642.36 918.09 597.94 1089.68 565.08 897.2 524.03 680.09 473.03 668.25 418.52 861.82 348.59 1046.25 261.85 1042.99 171.6 858.01 70.9 649.92 -27.1 568.74 -101.08 649.18 -141.77 805.9 -131.46 921.83 -75.39 940.22 20.85 849.89 127.54 707.36 194.84 550.88 196.43 433.78 113.67 364.78 -30.65 333.27 -186.5 327.44 -284.77 324.71 -279.1 330.13 -167.05 319.87 -1.56 287.02 124.3 254.16 147.86 200.26 66.91 132.86 -141.91 46.64 -171.9 37.74 27.79 175.05 164.22 266.95 254.33 310.13 288.51 248.7 269.83 89.71 219.17 -105.97 161.09 -220.65 78.19 -84.42 43.42 43.46 77.51 -264.36 108.78 -265.26 142.9 -54.85 175.76 137.66 208.62 83.97 238.67 -144.99 269.37 -289.74 304.77 -202.78 349.52 27.27 410.72 181.97 484.93 140.57 580.57 -35.73 693.36 -183.07 802.08 -195.68 899.92 -62.17 961.67 123.17 970.56 277.05 919.41 334.16 817.2 307.49 707.74 222.12 625.15 135.11 614.76 78.69 694.87 45.4 842.54 50.18 999.56 77.15 1093.2 114.92 1076.3 154.81 950.43 187.68Q950.43 187.68 950.43 187.68" opacity="0.83"></path><path d="M916.43 243.58C762.16 274.09 643.54 322.28 607.64 390.23 664.72 462.24 780.83 557.39 902.81 668.24 991.31 764.95 1009.25 842.03 957.61 865.76 852.68 825.5 725.39 721.3 606.52 591.47 509.17 516.96 449.07 544.9 422.39 694.36 424.7 888.7 442.59 1017.75 462.64 981.63 497.96 723.67 501.85 908.06 464.16 1055.68 433.65 881.4 388.41 667.94 329.62 614.48 270.5 759.06 198.52 956.27 118.55 1034.25 45.62 936.25 -22.51 737.12 -71.84 574.08 -92.2 530.76 -75.9 611.2 -18.55 740.97 60.32 857.75 151.44 895.66 224.59 854.76 244.46 753.09 199.15 629.08 88.28 515.79 -56.05 410.75 -189.53 335.13 -258.39 282.94 -234.26 239.23 -121.83 205.2 32.43 174.69 152.32 144.17 186.06 118.62 127.11 104.78 2.1 99.41 -127.6 119.52 -209.82 171.67 -221.08 232.08 -155.48 305.84 -40.66 360.5 94.83 354.39 213.6 272.7 295.01 115.94 334.29 -53.83 333.88 -170.46 309.42 -158.95 264.78 -27.7 221.69 144.06 190.63 219.72 156.42 12.14 174.17 -106.27 214.74 171.66 245.26 130.47 284.72 -76.03 334.26 -240.81 386.56 -217.27 453.18 -26.59 534.72 167.08 618.66 225.6 712 123.95 803.67 -38.61 875.16 -156.32 919.37 -148.11 920.09 -33.63 878.67 136.18 796.08 284.2 692.35 371.5 609.3 394.82 571.06 368.01 604.69 324.18 709.29 266.21 856.36 226.57 993.15 212.09 1063.87 201.68 1036.32 213.07 916.43 243.58Q916.43 243.58 916.43 243.58" opacity="0.77"></path><path d="M882.43 490.94C739.6 519.11 623.03 566.61 572.85 628.12 602.86 684.53 693.5 742.68 806.2 785.48 909.83 799.86 965.8 774.25 963.15 700.92 906.89 609.37 811.76 514.48 702.2 465.13 590.26 503.25 496.99 631.81 428.78 812.29 382.51 953.22 357.88 981.82 346.04 868.44 345.85 693.31 346.25 575.22 340.45 619.03 336.82 804.07 322.1 991.78 293.94 1021.68 265.77 865.34 225.48 660.14 176 572.86 128.68 662.92 77.04 846.01 28.41 979.05 -8.54 976.51 -30.3 839.75 -27.44 659.15 -2.64 520.86 50.18 485.98 125.2 541.68 197.84 654.88 259.58 760.42 286.52 820.89 259.84 833.11 178.6 793.59 54.33 726.29 -79.01 637.99 -185.68 553.31 -226.56 484.5 -187.25 415.6 -76.39 366.33 66.43 338.16 179.79 309.99 221.76 304.25 183.43 320.02 80.37 335.71 -41.79 369.15 -139.06 408.64 -187.42 427.14 -168.97 420.29 -95.48 364.68 15.48 260.81 135.48 114.84 241.08 -35.27 324.21 -127.92 374.11 -126.45 395.64 -17.51 392.54 133.75 376.65 245.27 359.22 227.2 327.98 -26.01 324.3 -50.44 358.94 205.66 387.11 175.83 429.17 -6.14 483.7 -180.35 538.22 -213.33 604.13 -79.23 676.84 116.54 743.09 250.59 805.36 247.27 851.87 135.67 873.76 -15.47 864.3 -110.65 818.08 -111.86 749.4 -25.59 662.79 109.72 581.16 244.68 536.99 361.42 543.8 433.42 612.81 467.86 730.72 473.87 868.93 466.95 982.85 463.67 1032.05 455.27 995.79 462.77 882.43 490.94Q882.43 490.94 882.43 490.94" opacity="0.21"></path><path d="M848.43 626.96C717.24 652.78 604.54 676.78 543.56 693.78 549.09 704.34 612.12 696.65 706.86 662.94 811.14 616.84 890.24 548.08 927.38 472.5 920.84 425.75 871.32 421.02 793.9 483.69 697.57 606.16 600.56 764.06 514.25 899.58 436.71 949.36 376.97 887.33 332.81 736.29 298.45 589.95 272.79 534.66 250.56 622.91 231.22 806.49 209.77 967.95 183.95 987.68 158.13 848.91 129.16 656.05 99.82 543.84 73.35 579.49 52.04 726.93 41.65 882.27 41.06 959.66 58.29 912.75 96.03 777.03 142.56 611.03 202.5 487.23 264.98 437.61 308.56 463.04 327.47 536.23 307.13 618.75 243.1 699.24 140.85 746.5 17.64 759.63 -96.01 750.17 -173.74 720.18 -189.23 683.34 -138.22 640.39 -30.75 603.13 100.43 577.31 206.72 551.49 254.94 538.32 235.32 532.59 155.51 520.73 47.6 503.76 -53.65 468.49 -127.32 410.62 -149.88 320.85 -121.43 200.58 -50.5 78.26 46.5 -32 149.43 -91.29 250.33 -75.53 332.83 17.62 393.1 156.74 434.65 265.59 457.97 289.38 470.44 193.09 473.85 -62.23 493.48 7.04 526.41 239.65 552.23 219.99 588.42 63.78 632.3 -109.84 674.17 -188.17 719.37 -118.21 761.6 47.04 793.87 217.02 813.08 302.22 811.32 279.34 790.84 170.71 745.41 43.42 678.35 -45.21 609.26 -74.04 542.86 -32.25 498.82 54.29 497.25 169.66 542.97 280.93 635.57 371.78 755.75 450.24 878.35 504.89 968.13 543.03 997.71 574.73 954.72 601.14 848.43 626.96Q848.43 626.96 848.43 626.96" opacity="0.91"></path><path d="M814.38 485.14C694.99 508.61 587.87 514 519.65 501.61 504.3 488.4 539.92 457.99 610.93 416.24 703.43 384.63 789.55 360.72 851.7 363.34 885.55 405.63 882.26 492.67 847.89 619.54 788.42 752.14 714.46 863.06 637.3 908.33 556.53 868.35 483.98 751.62 422.92 605.85 366.03 510.78 320.06 516.09 283.45 634.78 248.79 808.01 220.12 942.86 196.65 953.69 173.18 832 156.01 654.92 146.4 527.2 138.76 513.7 142.02 611.85 158.23 757.32 178.62 882.01 212.51 921.14 257.11 867.2 298.09 743.49 338.35 599.65 367.06 480.71 370.67 405.66 346.12 386.64 287.83 408.17 201.25 461.53 94.07 519.8 -15.62 566.55 -103.84 610.31 -152.82 633.08 -146.53 636.7 -87.36 636.24 14.99 622.88 134.38 599.41 233.11 575.93 285.6 543.46 282.35 499.66 225.72 451.77 136.94 386.3 41.59 301.86 -44.27 214.44 -96.62 117.51 -108.55 27.98 -82.71 -29.72 -24.05 -44.4 53.69 -0.11 144.25 88.05 232.57 204.07 310.32 303.34 380.38 332.83 435.23 272.65 476.72 130.76 510.26 -31.91 536.02 -143.42 558.19 -138.98 577.95 -20.32 598.67 152 622.14 273.69 645.61 262.86 670.73 132.76 695.23 -31.4 717.33 -141.03 734.27 -132.98 741.42 -20.71 740.6 142.26 724.41 280.04 690.54 344.46 648.97 323.63 594.34 240.54 534.55 138.7 487.55 42.6 456.71 -10.73 455.31 -16.85 491.67 16.7 565.05 79.26 668.12 151.55 780.67 233.97 882.83 307.09 948.52 364.56 960.85 421.22 913.14 461.66 814.43 485.13Q814.38 485.14 814.38 485.14" opacity="0.67"></path><path d="M780.92 238.97C673.48 260.09 573.35 269.35 501.18 270.26 469.02 274.94 479.21 279.19 523.77 292.24 595.32 321.35 673.9 372.62 744.3 452.03 802.44 548.34 835.03 660.68 841.42 768.81 825.71 842.84 789.94 866.49 742.03 823.11 683.49 727.71 623.18 603.08 566.76 497.27 508.87 462.59 458.68 517.99 417.97 651.99 377.63 807.62 346.49 916.32 325.37 919.58 304.24 814.37 294.13 655.78 294.63 521.88 295.5 468.62 307.26 512.86 328.55 623.24 361.12 804.03 417.93 791.75 408.67 627.31 374.59 508.06 316.96 415.15 236.82 356.3 144.43 327.96 46.9 326.06 -40.12 337.16 -100.17 361.15 -122.39 381.77 -98.38 391.41 -34.36 402.43 61.48 398.4 168.92 377.27 259.42 356.16 313.94 318.94 324.04 268.09 289.05 218.62 221.94 159.57 140.29 98.97 54.84 51.25 -13.25 18.34 -54.28 14.11 -68.17 40.39 -51.4 102.97 -10.89 194.52 48.71 283.62 118 353.91 188.26 372.97 261.05 322.41 326.45 207.82 381.9 59.37 434.23 -66.49 477.04 -122.78 511.3 -77.71 544.07 48 570.82 202.31 591.94 307.55 613.07 304.35 627.57 199.95 634.64 52.48 640.22 -73.38 635.84 -116.79 620.12 -66.64 601.28 54.63 570.66 198.21 530.44 315.62 492.74 381 453.77 382.4 421.85 336.07 409.03 255.63 417.3 173.61 453.19 109.86 516.22 63 603.27 46.53 704.2 54.02 801.34 77.58 880.47 111.76 923.61 146.92 921.66 185.85 871.42 217.84 780.92 238.97Q780.92 238.97 780.92 238.97" opacity="0.69"></path><path d="M746.37 190.03C650.93 208.81 559.35 233.25 486.97 264.99 443.26 299.68 432.46 346.65 451.57 408.38 497.59 475.58 557.89 556.59 621.18 644.81 684.94 722.59 735.79 786.45 769.53 819.33 789.5 811.94 791.24 759.62 778.34 667.83 754.32 565.73 722.07 473.99 686.61 426.7 646.74 448.08 608.65 537.36 575.54 672.11 541.62 804.83 514.47 888.65 495.69 885.66 476.92 796.19 467.39 658 465.91 526.6 463.6 445.74 467.53 440.15 474.86 501.43 477.77 608.45 479.11 718.9 474.19 799.93 458.14 838.43 429.44 823.47 384.86 766.91 326.51 679.39 253.4 582.24 170.09 491.99 87.24 408.49 10.1 344.98 -49.67 300.31 -82.54 267.16 -82.43 245.55 -45.97 229.14 19.16 216.26 106.93 201.84 202.37 183.06 284.48 164.28 339.54 142.03 360.5 119.51 345.19 100.5 300.7 87.95 238.05 88.56 163.42 100.69 93.3 133.28 37.3 187.83 -3.99 249.14 -22.36 319.33 -19.33 382.24 1.33 414.19 37.06 406.89 81.44 348.83 134.01 248.25 187.42 120.96 237.23 0.18 288.43 -74.86 333.04 -79.95 369.39 -6.34 405.58 117.81 433.51 252.19 452.29 341.66 471.07 344.64 479.81 264.63 479.04 139.16 478.11 11.65 467.66 -66.93 449.01 -74.54 431.74 -13.5 409.25 95.07 385.62 216.73 370.17 328.07 361.39 402.65 365.33 434.65 386.9 426.39 427.53 389.48 488.38 340.64 563.92 281.37 650.87 231.28 739.27 196.62 843.28 161.03 854.13 165.13 746.42 190.02Q746.37 190.03 746.37 190.03" opacity="0.26"></path><path d="M712.42 398.05C546.92 430.92 426.58 513.94 396.84 627.54 457.04 718.2 558.08 772.99 645.94 722.42 715.56 590.69 735.4 432.23 719.19 401.85 686.11 564.78 645.09 797.95 612.22 851.65 579.36 659.13 557.77 442.02 533.9 409.96 493.17 563.99 422.05 734.75 309.36 793.19 178.43 733.21 42.54 601.69 -41.75 480.75 -36.09 361.82 70.92 287.08 236.42 254.21 362.29 221.35 390.09 233.49 327.29 295.46 205.2 359.46 95.83 439.69 38.59 456.61 26.7 355.1 64.27 149.49 120.73 -28.62 191.09 -20.65 250.42 183.13 283.28 375.65 317.78 212.03 313.35 114.38 375.17 385.83 475.48 479.47 619.7 475.97 765.88 442.25 852.78 385.61 838.29 365.19 712.42 398.05Q712.42 398.05 712.42 398.05" opacity="0.17"></path><path d="M678.38 608.43C535.56 636.6 418.23 676.99 362.1 704 373.7 702.84 431.43 645.23 499.79 525.56 575.86 413.21 624.75 351.64 641.69 421.5 649.73 602.46 636.36 787.8 608.19 817.69 580.02 661.35 539.74 457.35 482.88 361.36 417.13 416.62 324.27 555.75 211.29 673.51 106.01 740.65 18.41 726.86 -13.83 673.8 21.64 596.36 127.56 532.06 270.38 503.9 383.76 475.73 428.68 486.36 403.41 514.99 320.74 519.24 225.67 489.07 152.79 385.02 90.01 145.85 136.09 157.01 180.49 409.66 208.66 379.83 229.85 205.92 253.68 45.58 289.87 -3.65 349.34 87.78 441.27 237.05 551.06 393.64 676.01 495.21 779.33 545.18 825.27 566.98 791.78 580.26 678.43 608.42Q678.38 608.43 678.38 608.43" opacity="0.11"></path><path d="M644.38 563.72C525 587.19 417.66 581.67 347.63 542.91 321.46 497.45 333.99 420.4 366.55 340.78 417.69 310.47 461.36 349.11 485.33 475.23 508.57 639.76 509.38 772.87 485.91 783.69 462.44 662 416.9 486.6 352.99 359.16 288.34 324.93 208.04 380.25 126.13 469.95 62.81 573.46 25.38 638.97 34.35 661.13 87.18 666.26 185 649.79 304.38 626.32 403.11 602.85 457.44 574.6 462.31 528.79 421.23 465.95 358.06 363.82 296.95 229.55 233.77 109.09 193.52 28.86 178.71 45.86 169.8 156.08 178.95 321.95 202.42 443.66 225.88 432.89 261.45 309.32 311.03 161.97 366.52 53.04 443.39 39.28 537.34 100.36 629.22 210.74 717.28 324.42 775.58 410.57 787.93 490 743.13 540.24 644.43 563.71Q644.38 563.72 644.38 563.72" opacity="0.13"></path><path d="M610.63 318.54C515.2 337.31 423.69 328.18 352.08 300.6 303.89 281.56 281.47 264.13 277.99 272.37 291.46 320.29 308.75 415.24 319.45 545.53 333.42 669.61 333.38 752.57 314.6 749.64 295.82 660.18 260.08 523.57 213.58 397.3 170.33 310.27 123.74 282.43 85.65 298.97 64.52 350.47 67.02 405.45 101.46 442.18 159.31 479.51 243.2 490.42 338.63 471.64 420.67 452.86 476.66 406.18 501.56 336.31 495.79 267.04 469.43 182.75 435.9 106.63 392.11 65.48 356.83 73.41 337.65 146.68 318.71 259.18 317.54 388.18 336.32 477.64 355.1 480.57 392.05 405.22 443.53 294.91 495.25 178.38 559.84 103.34 628.24 80.03 686.38 96.41 732.65 143.15 752.19 194.73 741.05 254.84 692.67 299.76 610.63 318.54Q610.63 318.54 610.63 318.54" opacity="0.91"></path><path d="M576.38 173.11C433.56 201.27 314.79 241.38 253.07 349.21 229.35 505.17 220.29 685.8 192.13 715.69 163.96 559.33 122.01 357.95 108.82 255.96 133.62 238.62 229.56 257.46 372.38 229.29 485.77 201.12 536.38 131.29 536.74 111.71 500.89 176.79 478.57 355.33 506.74 511.69 534.9 481.8 608.22 324.01 680.99 204.96 717.54 134.05 689.77 144.94 576.38 173.11Q576.38 173.11 576.38 173.11" opacity="0.59"></path><path d="M542.43 305.36C355.29 342.92 225.05 599.89 187.5 681.68 149.94 452.46 219.29 233.41 406.43 195.85 542.52 158.3 578.7 316.46 616.26 545.68 653.81 463.89 678.52 267.81 542.43 305.36Q542.43 305.36 542.43 305.36" opacity="0.90"></path></g></svg>